<?xml version="1.0" encoding="utf-8"?>
<!-- Generator: Adobe Illustrator 22.0.1, SVG Export Plug-In . SVG Version: 6.00 Build 0)  -->
<svg version="1.1" id="Layer_1" xmlns="http://www.w3.org/2000/svg" xmlns:xlink="http://www.w3.org/1999/xlink" x="0px" y="0px"
	 width="120.9px" height="120.9px" viewBox="0 0 120.9 120.9" style="enable-background:new 0 0 120.9 120.9;" xml:space="preserve"
	>
<path d="M120.9,120.9H0V0h120.9V120.9z M8.4,112.5h104.1V8.4H8.4V112.5z"/>
<path d="M23.9,54.6l10.4-8c2.6-2.1,3.6-3.4,3.6-5.1c0-1.8-1.2-2.9-3.1-2.9c-1.9,0-3.3,1.1-5.5,3.7l-5.2-4.4c3-3.9,6-6,11.3-6
	c6.1,0,10.3,3.7,10.3,9v0.1c0,4.5-2.3,6.8-6.5,9.9l-4.8,3.4H46v6.4H23.9V54.6z"/>
<path d="M65.5,46.5L65.5,46.5c0-4.6-2.1-7.8-5.2-7.8c-3.1,0-5.1,3.2-5.1,7.7v0.1c0,4.5,2.1,7.7,5.2,7.7
	C63.5,54.1,65.5,50.9,65.5,46.5 M47.5,46.5L47.5,46.5c0-8,5-14.7,12.9-14.7c7.9,0,12.9,6.6,12.9,14.6v0.1c0,8-5,14.6-12.9,14.6
	C52.4,61,47.5,54.4,47.5,46.5"/>
<polygon points="75.3,61.1 97,61.1 97,67.8 82.8,67.8 82.8,72.5 95.6,72.5 95.6,78.7 82.8,78.7 82.8,88.5 75.3,88.5 "/>
</svg>
