<?xml version="1.0" encoding="utf-8"?>
<!-- Generator: Adobe Illustrator 22.0.1, SVG Export Plug-In . SVG Version: 6.00 Build 0)  -->
<svg version="1.1" id="Layer_1" xmlns="http://www.w3.org/2000/svg" xmlns:xlink="http://www.w3.org/1999/xlink" x="0px" y="0px"
	 width="154.8px" height="60.5px" viewBox="0 0 154.8 60.5" style="enable-background:new 0 0 154.8 60.5;" xml:space="preserve">
<g>
	<path d="M13,21.3H8.3l6-6.4c2-2.1,3.1-3.6,3.1-6.2c0-4.8-3.4-7.6-8.1-7.6C5,1,1.2,3.7,1.2,8.7h5.8c0-2,1.3-2.5,2.3-2.5
		c1.5,0,2.3,1,2.3,2.3c0,1.1-0.4,1.7-1.3,2.7l-9.2,10v5.3H13V21.3z"/>
	<path d="M29,26.7c4.2,0,8.1-2.7,8.1-7.9v-10C37.2,3.7,33.2,1,29,1c-4.2,0-8.1,2.7-8.1,7.9v10C20.9,24.1,24.8,26.7,29,26.7z
		 M26.7,8.9c0-1.8,1.1-2.6,2.3-2.6c1.2,0,2.3,0.9,2.3,2.6v10c0,1.8-1.1,2.6-2.3,2.6c-1.2,0-2.3-0.8-2.3-2.6V8.9z"/>
	<polygon points="19.1,33.8 1.9,33.8 1.9,59.1 8.1,59.1 8.1,39.4 19.1,39.4 	"/>
	<path d="M26.9,33.8l-9.2,25.3h6.5l1.2-3.8h7.8l1.2,3.8h6.5l-9.2-25.3H26.9z M27.2,50.2l2.3-6.8l2.1,6.8H27.2z"/>
	<polygon points="39.9,39.4 46.1,39.4 46.1,59.1 52.3,59.1 52.3,39.4 58.5,39.4 58.5,33.8 39.9,33.8 	"/>
	<polygon points="75,43.6 68.4,43.6 68.4,33.8 62.2,33.8 62.2,59.1 68.4,59.1 68.4,49.1 75,49.1 75,59.1 81.3,59.1 81.3,33.8 
		75,33.8 	"/>
	<path d="M101.6,36.5c-1.8-1.8-4-2.8-7.1-2.8s-5.2,1-7.1,2.8c-2.7,2.7-2.6,6.2-2.6,10s-0.1,7.4,2.6,10c1.8,1.9,4,2.8,7.1,2.8
		s5.2-1,7.1-2.8c2.7-2.7,2.6-6.2,2.6-10S104.2,39.1,101.6,36.5z M97,52.7c-0.5,0.6-1.4,1.1-2.5,1.1s-2-0.5-2.5-1.1
		c-0.6-0.7-0.9-1.6-0.9-6.2c0-4.6,0.4-5.5,0.9-6.2c0.5-0.6,1.4-1.1,2.5-1.1s2,0.5,2.5,1.1c0.6,0.7,0.9,1.6,0.9,6.2
		C97.9,51.1,97.6,51.9,97,52.7z"/>
	<polygon points="119.6,45 113.9,33.8 107.7,33.8 107.7,59.1 114,59.1 114,47 117.6,53.3 121.5,53.3 125.1,47 125.1,59.1 
		131.4,59.1 131.4,33.8 125.2,33.8 	"/>
	<path d="M151.6,45.8c-1.1-1.1-2.7-1.8-5-2.1l-3.1-0.4c-0.9-0.1-1.4-0.4-1.7-0.7c-0.4-0.4-0.5-0.9-0.5-1.2c0-1.1,0.9-2.3,3.1-2.3
		c1.1,0,3.2-0.1,4.8,1.5l3.9-3.9c-2.2-2.2-4.9-3-8.5-3c-5.8,0-9.2,3.4-9.2,8c0,2.2,0.6,3.9,1.7,5.1c1.1,1.2,2.8,1.9,5.1,2.2l3.1,0.4
		c0.8,0.1,1.4,0.4,1.7,0.7c0.4,0.4,0.5,0.9,0.5,1.5c0,1.5-1.2,2.3-3.6,2.3c-2,0-4.3-0.5-5.7-1.8l-4,4c2.6,2.6,5.7,3.3,9.6,3.3
		c5.3,0,9.8-2.8,9.8-8C153.5,49,153,47.2,151.6,45.8z"/>
	<polygon points="13,49.4 17.5,49.4 17.5,43.8 13,43.8 	"/>
</g>
</svg>
