<?xml version="1.0" encoding="utf-8"?>
<!-- Generator: Adobe Illustrator 22.0.1, SVG Export Plug-In . SVG Version: 6.00 Build 0)  -->
<svg version="1.1" id="Layer_1" xmlns="http://www.w3.org/2000/svg" xmlns:xlink="http://www.w3.org/1999/xlink" x="0px" y="0px"
	 width="346.8px" height="85.9px" viewBox="0 0 346.8 85.9" style="enable-background:new 0 0 346.8 85.9;" xml:space="preserve">
<g>
	<path d="M23,28.5c6.2-4.5,9.7-8,9.7-14.8v-0.1c0-8-6.3-13.4-15.4-13.4c-8.1,0-12.5,3.2-17,9l7.8,6.6c3.3-3.8,5.5-5.5,8.3-5.5
		c2.9,0,4.7,1.6,4.7,4.3c0,2.5-1.5,4.5-5.4,7.6L0,34.2V43h33.1v-9.5H15.8L23,28.5z"/>
	<path d="M54.7,0C42.8,0,35.3,10,35.3,21.9v0.1c0,11.9,7.4,21.8,19.3,21.8c11.9,0,19.4-10,19.4-21.9v-0.1C74,9.9,66.6,0,54.7,0z
		 M62.3,22.1c0,6.7-3,11.5-7.6,11.5c-4.7,0-7.8-4.8-7.8-11.6v-0.1c0-6.8,3-11.5,7.6-11.5c4.7,0,7.8,4.9,7.8,11.6V22.1z"/>
	<polygon points="107.5,61 88.3,61 88.3,54 109.5,54 109.5,44.1 77,44.1 77,85.1 88.3,85.1 88.3,70.4 107.5,70.4 	"/>
	<path d="M121.2,43.8l-17.2,41.3h11.8l2.9-7.4h15.7l2.9,7.4h12.1L132,43.8H121.2z M121.9,68.9l4.6-11.6l4.5,11.6H121.9z"/>
	<polygon points="142.9,54 155,54 155,85.1 166.3,85.1 166.3,54 178.5,54 178.5,44.1 142.9,44.1 	"/>
	<polygon points="206.2,59.4 191.8,59.4 191.8,44.1 180.5,44.1 180.5,85.1 191.8,85.1 191.8,69.5 206.2,69.5 206.2,85.1 217.5,85.1 
		217.5,44.1 206.2,44.1 	"/>
	<path d="M242.3,43.3c-12.5,0-21.9,9.6-21.9,21.3v0.1c0,11.8,9.3,21.2,21.8,21.2c12.5,0,21.9-9.6,21.9-21.3v-0.1
		C264.1,52.7,254.9,43.3,242.3,43.3z M252.6,64.7c0,5.9-4.1,11-10.3,11c-6.2,0-10.4-5.2-10.4-11.1v-0.1c0-5.9,4.1-11,10.3-11
		c6.2,0,10.4,5.1,10.4,11.1V64.7z"/>
	<polygon points="288.6,60 278.9,44.1 267,44.1 267,85.1 278.1,85.1 278.1,61.6 288.4,77.6 288.6,77.6 299,61.5 299,85.1 
		310.2,85.1 310.2,44.1 298.3,44.1 	"/>
	<path d="M331.8,59.5c-5.7-1.3-7.1-2.1-7.1-4v-0.1c0-1.5,1.3-2.6,4.1-2.6c3.6,0,7.7,1.3,11.4,4l5.6-8c-4.4-3.6-9.8-5.5-16.7-5.5
		c-9.7,0-15.7,5.5-15.7,13.1v0.1c0,8.4,6.7,10.8,15.3,12.8c5.6,1.3,6.9,2.2,6.9,4v0.1c0,1.8-1.6,2.8-4.7,2.8
		c-4.7,0-9.1-1.7-13.2-4.9l-6.3,7.6c5,4.5,11.8,6.8,19,6.8c9.9,0,16.4-5,16.4-13.4v-0.1C346.8,64.6,341,61.6,331.8,59.5z"/>
</g>
</svg>
