<?xml version="1.0" standalone="no"?>
<!DOCTYPE svg PUBLIC "-//W3C//DTD SVG 20010904//EN"
 "http://www.w3.org/TR/2001/REC-SVG-20010904/DTD/svg10.dtd">
<svg version="1.0" xmlns="http://www.w3.org/2000/svg"
 width="253.000000pt" height="253.000000pt" viewBox="0 0 253.000000 253.000000"
 preserveAspectRatio="xMidYMid meet">
<metadata>
Created by potrace 1.11, written by Peter Selinger 2001-2013
</metadata>
<g transform="translate(0.000000,253.000000) scale(0.100000,-0.100000)"
fill="#000000" stroke="none">
<path d="M0 1265 l0 -1260 1258 0 1257 0 0 1260 0 1260 -1257 0 -1258 0 0
-1260z m2341 1051 c0 -42 0 -2074 0 -2107 l-1 -26 -1080 0 -1080 0 -1 51 c0
64 0 2075 0 2097 1 14 100 16 1081 16 l1080 0 1 -31z"/>
<path d="M1185 1853 c-112 -33 -185 -134 -193 -269 -7 -111 16 -180 82 -252
89 -97 250 -105 352 -18 145 124 132 411 -24 510 -65 41 -141 51 -217 29z
m133 -160 c62 -60 59 -216 -3 -270 -77 -67 -168 22 -160 155 7 115 98 179 163
115z"/>
<path d="M602 1829 c-27 -15 -61 -42 -76 -60 l-27 -31 42 -37 c65 -55 66 -56
105 -22 44 39 80 48 113 29 21 -11 26 -21 25 -51 -1 -20 -7 -44 -15 -53 -10
-12 -241 -193 -267 -209 -3 -2 -5 -60 -3 -100 l1 -30 230 0 230 0 0 67 0 68
-116 0 -116 0 80 59 c134 100 164 159 137 278 -8 36 -62 89 -107 107 -66 27
-175 20 -236 -15z"/>
<path d="M1570 968 l0 -288 81 0 80 0 -2 95 c-1 53 1 98 3 101 3 3 63 6 134 7
l129 2 1 55 c0 80 0 80 -70 79 -33 -1 -93 -1 -131 0 l-70 1 3 45 c5 52 -13 47
175 46 114 0 117 1 118 22 0 12 2 39 3 60 1 21 -1 43 -5 49 -5 7 -80 11 -228
12 l-221 1 0 -287z"/>
</g>
</svg>
